<svg width="681" height="391" viewBox="0 0 681 391" fill="none" xmlns="http://www.w3.org/2000/svg">
<ellipse cx="622.5" cy="195" rx="43" ry="43.5" transform="rotate(90 622.5 195)" fill="white"/>
<ellipse cx="467" cy="196.5" rx="26.5" ry="27" transform="rotate(90 467 196.5)" fill="white"/>
<circle cx="385.5" cy="196.5" r="19.5" transform="rotate(90 385.5 196.5)" fill="white"/>
<circle cx="224.5" cy="196.5" r="19.5" transform="rotate(90 224.5 196.5)" fill="white"/>
<circle cx="305.5" cy="196.5" r="19.5" transform="rotate(90 305.5 196.5)" fill="white"/>
<ellipse cx="565.5" cy="195" rx="4" ry="3.5" transform="rotate(90 565.5 195)" fill="white"/>
<circle cx="524.5" cy="195.5" r="13.5" transform="rotate(90 524.5 195.5)" fill="white"/>
<ellipse cx="554.5" cy="195" rx="4" ry="3.5" transform="rotate(90 554.5 195)" fill="white"/>
<ellipse cx="426.5" cy="196" rx="4" ry="3.5" transform="rotate(90 426.5 196)" fill="white"/>
<ellipse cx="415.5" cy="196" rx="4" ry="3.5" transform="rotate(90 415.5 196)" fill="white"/>
<ellipse cx="198.5" cy="195" rx="4" ry="3.5" transform="rotate(90 198.5 195)" fill="white"/>
<ellipse cx="187.5" cy="195" rx="4" ry="3.5" transform="rotate(90 187.5 195)" fill="white"/>
<ellipse cx="23" cy="90.5" rx="4.5" ry="4" transform="rotate(90 23 90.5)" fill="white"/>
<ellipse cx="9.5" cy="82.5" rx="8.5" ry="7.5" transform="rotate(90 9.5 82.5)" fill="white"/>
<ellipse cx="4.5" cy="4" rx="4.5" ry="4" transform="matrix(4.37114e-08 -1 -1 -4.37114e-08 25 307)" fill="white"/>
<ellipse cx="8.5" cy="7.5" rx="8.5" ry="7.5" transform="matrix(4.37114e-08 -1 -1 -4.37114e-08 15 319)" fill="white"/>
<ellipse cx="502.5" cy="195" rx="4" ry="3.5" transform="rotate(90 502.5 195)" fill="white"/>
<circle cx="543" cy="195" r="1" transform="rotate(90 543 195)" fill="white"/>
<circle cx="305.5" cy="196.5" r="82" transform="rotate(90 305.5 196.5)" stroke="white"/>
<circle cx="318" cy="196" r="97.5" transform="rotate(90 318 196)" stroke="white"/>
<circle cx="320.5" cy="196.5" r="105" transform="rotate(90 320.5 196.5)" stroke="white"/>
<ellipse cx="622.5" cy="387" rx="4" ry="3.5" transform="rotate(90 622.5 387)" fill="white"/>
<ellipse cx="622.5" cy="4" rx="4" ry="3.5" transform="rotate(90 622.5 4)" fill="white"/>
<line x1="622.5" y1="4" x2="622.5" y2="387" stroke="white"/>
<ellipse cx="524.5" cy="325.5" rx="4" ry="3.5" transform="rotate(90 524.5 325.5)" fill="white"/>
<path d="M524.5 69C522.567 69 521 67.2091 521 65C521 62.7909 522.567 61 524.5 61C526.433 61 528 62.7909 528 65C528 67.2091 526.433 69 524.5 69Z" fill="white"/>
<ellipse cx="467.5" cy="325.5" rx="4" ry="3.5" transform="rotate(90 467.5 325.5)" fill="white"/>
<path d="M467.5 110C465.567 110 464 108.209 464 106C464 103.791 465.567 102 467.5 102C469.433 102 471 103.791 471 106C471 108.209 469.433 110 467.5 110Z" fill="white"/>
<line x1="524.5" y1="63.5" x2="524.5" y2="325.5" stroke="white"/>
<ellipse cx="502.5" cy="289.5" rx="4" ry="3.5" transform="rotate(90 502.5 289.5)" fill="white"/>
<path d="M502.5 33C500.567 33 499 31.2091 499 29C499 26.7909 500.567 25 502.5 25C504.433 25 506 26.7909 506 29C506 31.2091 504.433 33 502.5 33Z" fill="white"/>
<line x1="502.5" y1="27.5" x2="502.5" y2="289.5" stroke="white"/>
<line x1="467.5" y1="106" x2="467.5" y2="325" stroke="white"/>
<ellipse cx="104" cy="196.5" rx="26.5" ry="27" transform="rotate(90 104 196.5)" fill="white"/>
<circle cx="161.5" cy="195.5" r="13.5" transform="rotate(90 161.5 195.5)" fill="white"/>
<ellipse cx="139.5" cy="195" rx="4" ry="3.5" transform="rotate(90 139.5 195)" fill="white"/>
<circle cx="43.5" cy="195.5" r="13.5" transform="rotate(90 43.5 195.5)" fill="white"/>
<ellipse cx="21.5" cy="195" rx="4" ry="3.5" transform="rotate(90 21.5 195)" fill="white"/>
<circle cx="180" cy="195" r="1" transform="rotate(90 180 195)" fill="white"/>
<ellipse cx="161.5" cy="325.5" rx="4" ry="3.5" transform="rotate(90 161.5 325.5)" fill="white"/>
<path d="M161.5 69C159.567 69 158 67.2091 158 65C158 62.7909 159.567 61 161.5 61C163.433 61 165 62.7909 165 65C165 67.2091 163.433 69 161.5 69Z" fill="white"/>
<ellipse cx="104.5" cy="325.5" rx="4" ry="3.5" transform="rotate(90 104.5 325.5)" fill="white"/>
<path d="M104.5 110C102.567 110 101 108.209 101 106C101 103.791 102.567 102 104.5 102C106.433 102 108 103.791 108 106C108 108.209 106.433 110 104.5 110Z" fill="white"/>
<line x1="161.5" y1="63.5" x2="161.5" y2="325.5" stroke="white"/>
<ellipse cx="139.5" cy="289.5" rx="4" ry="3.5" transform="rotate(90 139.5 289.5)" fill="white"/>
<path d="M139.5 33C137.567 33 136 31.2091 136 29C136 26.7909 137.567 25 139.5 25C141.433 25 143 26.7909 143 29C143 31.2091 141.433 33 139.5 33Z" fill="white"/>
<line x1="139.5" y1="27.5" x2="139.5" y2="289.5" stroke="white"/>
<line x1="104.5" y1="106" x2="104.5" y2="325" stroke="white"/>
<line x1="681" y1="326.5" x2="50" y2="326.5" stroke="white"/>
<line x1="681" y1="290.5" x2="50" y2="290.5" stroke="white"/>
<line x1="681" y1="106.5" x2="50" y2="106.5" stroke="white"/>
<line x1="681" y1="65.5" x2="50" y2="65.4999" stroke="white"/>
</svg>
